.
 
http://www.scenetime.com    -  Hottest private tracker on the net. !!!

New release on http://www.scenetime.com

        Seed back for speed


...................................NFO:.................................................








































          
          
              
              
                    
                    
                    
                    

Weekender.2011.BRRip.Xvid.AC3-SiC

Poster:
[img]http://img52.imageshack.us/img52/2996/8a1382977ea095f27714fcf.jpg[/img]

IMDB Link: 
http://www.imdb.com/title/tt1706470/

Description:
1990. The rave scene has arrived from Ibiza and warehouse parties are 
exploding across the UK bringing phenomenal wealth to the organisers.

MediaInfo:
General
Complete name                    : Weekender.2011.BRRip.Xvid.AC3-SiC.avi
Format                           : AVI
Format/Info                      : Audio Video Interleave
File size                        : 1.20 GiB
Duration                         : 1h 29mn
Overall bit rate                 : 1 904 Kbps

Video
ID                               : 0
Format                           : MPEG-4 Visual
Format profile                   : Advanced Simple@L5
Format settings, BVOP            : Yes
Format settings, QPel            : No
Format settings, GMC             : No warppoints
Format settings, Matrix          : Default (H.263)
Muxing mode                      : Packed bitstream
Codec ID                         : XVID
Codec ID/Hint                    : XviD
Duration                         : 1h 29mn
Bit rate                         : 1 512 Kbps
Width                            : 720 pixels
Height                           : 304 pixels
Display aspect ratio             : 2.35:1
Frame rate                       : 23.976 fps
Resolution                       : 8 bits
Colorimetry                      : 4:2:0
Scan type                        : Progressive
Bits/(Pixel*Frame)               : 0.288
Stream size                      : 973 MiB (79%)
Writing library                  : XviD 64

Audio
ID                               : 1
Format                           : AC-3
Format/Info                      : Audio Coding 3
Format_Settings_ModeExtension    : CM (complete main)
Codec ID                         : 2000
Duration                         : 1h 29mn
Bit rate mode                    : Constant
Bit rate                         : 384 Kbps
Channel(s)                       : 6 channels
Channel positions                : Front: L C R, Side: L R, LFE
Sampling rate                    : 48.0 KHz
Stream size                      : 247 MiB (20%)
Alignment                        : Aligned on interleaves
Interleave, duration             : 64 ms (1.53 video frames)
Interleave, preload duration     : 192 ms
Title                            : 6ch Englich

Screenshots:
[img]http://img64.imageshack.us/img64/889/weekender2011brripxvida.png[/img]
[img]http://img148.imageshack.us/img148/889/weekender2011brripxvida.png[/img]
[img]http://img5.imageshack.us/img5/889/weekender2011brripxvida.png[/img]
[img]http://img718.imageshack.us/img718/889/weekender2011brripxvida.png[/img]

Note :   N/A 

Source : BluRay-7sins Thanks!!!

Enjoy!

Respects to CaptainHomey, Cyanide, CM8, Rx, THC, ELEKTRI4KA, 
Killerhz, PA, YeFsTe, BoxSlots, MrRep and everyone in the struggle...